<svg width="25px" height="25px" viewBox="0 0 25 25" version="1.1" xmlns="http://www.w3.org/2000/svg" xmlns:xlink="http://www.w3.org/1999/xlink">
    <g id="index" stroke="none" stroke-width="1" fill="none" fill-rule="evenodd">
        <g id="index-1" transform="translate(-337.000000, -59.000000)" fill-rule="nonzero">
            <g id="header" transform="translate(0.000000, 43.000000)">
                <g id="add-icon" transform="translate(337.000000, 16.000000)">
                    <rect id="矩形" fill="#000000" opacity="0" x="0" y="0" width="25" height="25"></rect>
                    <path d="M16.9270833,11.6145833 L13.4895833,11.6145833 L13.4895833,8.80208333 C13.4895833,8.54319985 13.2330798,8.33333333 12.9166667,8.33333333 C12.6002535,8.33333333 12.34375,8.54319985 12.34375,8.80208333 L12.34375,11.6145833 L8.90624999,11.6145833 C8.58983686,11.6145833 8.33333333,11.8244499 8.33333333,12.0833333 C8.33333333,12.3422168 8.58983686,12.5520833 8.90624999,12.5520833 L12.34375,12.5520833 L12.34375,15.3645833 C12.34375,15.6234668 12.6002535,15.8333333 12.9166667,15.8333333 C13.2330798,15.8333333 13.4895833,15.6234668 13.4895833,15.3645833 L13.4895833,12.5520833 L16.9270833,12.5520833 C17.2434965,12.5520833 17.5,12.3422168 17.5,12.0833333 C17.5,11.8244499 17.2434965,11.6145833 16.9270833,11.6145833 Z" id="路径" fill="#646464"></path>
                    <path d="M13.3333333,2.5 C7.35024854,2.5 2.5,6.79060448 2.5,12.0833333 C2.5,17.3760622 7.35024854,21.6666667 13.3333333,21.6666667 C19.3164181,21.6666667 24.1666667,17.3760622 24.1666667,12.0833333 C24.1598012,6.79312215 19.3135721,2.50607326 13.3333333,2.5 Z M13.3333333,20.7083333 C7.94855703,20.7083333 3.58333334,16.8467893 3.58333334,12.0833333 C3.58333334,7.31987737 7.94855703,3.45833334 13.3333333,3.45833334 C18.7181096,3.45833334 23.0833333,7.31987737 23.0833333,12.0833333 C23.0773629,16.8445999 18.7156347,20.7030518 13.3333333,20.7083333 L13.3333333,20.7083333 Z" id="形状" fill="#646464"></path>
                </g>
            </g>
        </g>
    </g>
</svg>