<svg t="1617889512366" class="icon" viewBox="0 0 1024 1024" version="1.1" xmlns="http://www.w3.org/2000/svg"
    p-id="12095" width="200" height="200">
    <path
        d="M739.10331733 370.67786695l245.06780786 0c19.24928967 0 33.74476402 9.77891442 33.74476402 30.42885063 0 20.65575822-16.73906973 30.43467264-35.98719545 30.43467264L739.10331733 431.54139022c-19.25744071 0-34.87995107-9.77891442-34.87995107-30.43467264C704.22336626 380.45561629 719.84587776 370.67786695 739.10331733 370.67786695z"
        fill="#3AB642" p-id="12096"></path>
    <path
        d="M1017.27436345 540.55782855c0 20.65226525-14.50478819 30.43816562-33.74825586 30.43816562L791.06929891 570.99599417c-19.25744071 0-34.88111502-9.78240739-34.88111502-30.43816562 0-20.64993735 15.62367545-30.42768669 34.88111502-30.42768668l193.5733669 0C1003.88962759 510.13014187 1017.27436345 519.90789234 1017.27436345 540.55782855z"
        fill="#3AB642" p-id="12097"></path>
    <path
        d="M840.64381838 856.04802333c0 45.26546261-36.76028814 72.9593856-81.95007147 72.9593856L460.64934912 929.00740893l-95.91229781 0-279.82667321 0c-45.18279851 0-81.94774243-27.69042887-81.94774244-72.9593856l0-19.66960072c0-41.47684693 30.53713067-78.24411989 69.51772843-92.23429006l166.84813767-74.37051108c0 0 45.22587705-13.90168291 57.60699051-27.77542314 8.23738709-9.24100949 10.77904384-39.71061191 0.33764579-59.71203641-10.43906901-19.99909661-94.97969778-130.03662109-94.97969777-222.33261853 0-148.84697202 97.8392064-269.51334685 218.52304497-269.51334684 120.68849664 0 218.51955314 120.66637483 218.51955314 269.51334684 0 96.36520846-94.86792477 202.44995186-102.66637312 228.55461206-7.80426923 26.10465906-8.43415325 46.53803747 0.37956039 55.20854244 13.71073877 13.47555101 48.99586389 27.17930382 48.9958639 27.17930382l185.08332714 72.12574947c38.98292679 13.99599104 69.51889351 51.88448029 69.51889351 93.36132722L840.64381838 856.04802333 840.64381838 856.04802333z"
        fill="#3AB642" p-id="12098"></path>
    <path
        d="M984.08496811 702.34943374L855.44200761 702.34943374c-19.25278265 0-34.8764581-9.77891442-34.8764581-30.43816561 0-20.64760832 15.62367545-30.42768669 34.8764581-30.42768669l129.7630117 0c19.25278265 0 33.73195605 9.77891442 33.73195605 30.42768669C1018.93581255 692.56702635 1003.33542286 702.34943374 984.08496811 702.34943374z"
        fill="#3AB642" p-id="12099"></path>
</svg>