<svg t="1617889682860" class="icon" viewBox="0 0 1024 1024" version="1.1" xmlns="http://www.w3.org/2000/svg"
    p-id="12363" width="200" height="200">
    <path
        d="M741.928 430.978c-19.246 0-34.868-9.778-34.868-30.426 0-20.648 15.622-30.424 34.868-30.424h245.004c19.242 0 33.738 9.776 33.738 30.424s-16.738 30.426-35.976 30.426H741.928zM793.878 570.388c-19.246 0-34.866-9.778-34.866-30.428 0-20.644 15.62-30.422 34.866-30.422H987.4c19.244 0 32.62 9.778 32.62 30.422 0 20.65-14.496 30.428-33.74 30.428h-192.402zM858.234 701.708c-19.244 0-34.868-9.782-34.868-30.426s15.618-30.422 34.868-30.422h129.726c19.244 0 33.716 9.778 33.716 30.422s-15.594 30.426-34.838 30.426h-128.604zM774.222 742.364l-185.172-72.102s-35.344-13.704-49.048-27.18c-8.812-8.654-8.214-29.086-0.416-55.186 7.794-26.098 102.624-132.158 102.624-228.496 0-148.8-97.818-269.432-218.466-269.432-120.654 0-218.466 120.632-218.466 269.432 0 92.278 84.512 202.28 94.954 222.272 10.438 19.994 7.894 50.462-0.342 59.7-12.374 13.876-57.588 27.768-57.588 27.768l-166.8 74.342C36.526 757.476 6 794.226 6 835.696v19.664C6 900.612 42.75 928 87.924 928h673.59C806.69 928 844 900.612 844 855.36v-19.664c0-41.47-30.804-79.34-69.778-93.332z m4.436 122.646c-6.418 6.574-13.752 10.66-19.142 10.66l-673.59-0.004c-5.124 0-11.374-3.286-16.716-8.79-8.722-8.982-13.7-22.092-13.318-35.064 0.79-26.704 23.77-38.9 37.398-43.794l0.266-0.106 165.436-73.108c4.898-1.386 57.984-16.93 78.466-44.222 20.666-27.55 19.61-53.786 15.852-75.814a1335.16 1335.16 0 0 1-1.474-8.84c-4.058-24.652-5.576-33.876-23.54-55.61-0.756-0.914-75.626-92.46-75.626-174.748 0-116.146 79.062-218.03 169.192-218.03 90.724 0 170.306 101.884 170.306 218.03 0 58.86-38.876 115.05-64.6 152.232-6.604 9.542-12.304 17.786-16.286 24.542-21.808 37.032-25.012 53.156-26.566 67.704-0.516 4.808-4.61 47.63 10.134 70.312 12.608 19.39 69.65 43.354 72.072 44.364l185.128 72.138c16.22 5.832 40.318 24.46 40.842 46.052 0.262 10.698-5.06 22.694-14.234 32.096z"
        fill="" p-id="12364"></path>
</svg>