<svg t="1617889212923" class="icon" viewBox="0 0 1027 1024" version="1.1" xmlns="http://www.w3.org/2000/svg"
    p-id="10082" width="200" height="200">
    <path
        d="M514.624 0C230.192 0 0 207.408 0 463.248c0 156.992 87.952 296.576 220.8 381.808v143.472c0 19.344 13.088 30.992 28.08 30.992 5.616 0 11.248-1.904 14.976-3.872l140.336-96.912c35.584 7.728 71.12 9.696 108.56 9.696 284.432 0 514.576-207.424 514.576-463.264C1029.216 207.408 799.088 0 514.624 0z m0 850.896c-31.824 0-63.648-3.856-95.44-9.696l-14.992-3.872c-9.344-1.92-18.688 0-28.064 5.856l-13.072 9.648-67.376 46.544v-75.6c0-13.584-7.472-27.136-18.704-32.96l-18.72-11.616C142.224 707.44 72.992 589.232 72.992 465.168c0-213.2 196.496-385.696 439.76-385.696 243.28 0 439.744 172.512 439.744 385.696 1.872 211.28-196.48 385.744-437.872 385.728z"
        fill="" p-id="10083"></path>
</svg>