<svg t="1617889151125" class="icon" viewBox="0 0 1024 1024" version="1.1" xmlns="http://www.w3.org/2000/svg" p-id="8634"
    width="200" height="200">
    <path
        d="M512.0128 43.6992C230.208 43.6992 0.9344 237.6192 0.9344 475.9936c0 130.5088 68.9152 252.7104 189.0176 335.232 4.6592 3.2128 7.4368 8.0128 7.4368 12.8384v117.8624c0 15.1296 8.9344 28.8896 22.7456 35.0592 5.0176 2.2272 10.3424 3.328 15.6288 3.328 9.28 0 18.4576-3.3664 25.6128-9.7792l87.5008-78.272c3.5968-3.264 9.024-4.3776 14.4512-2.9824 48.6784 12.6208 98.7008 19.0208 148.672 19.0208 281.7792 0 511.0528-193.92 511.0528-432.2944S793.792 43.6992 512.0128 43.6992z"
        p-id="8635" fill="#3AB642"></path>
</svg>