<svg t="1617890065645" class="icon" viewBox="0 0 1024 1024" version="1.1" xmlns="http://www.w3.org/2000/svg"
    p-id="15591" width="200" height="200">
    <path
        d="M997.053 881.448v115.605H26.947V881.448l323.369-207.764v-80.842c-19.941 0-38.373-20.076-55.35-60.227-17.004-40.152-25.492-73.97-25.492-101.457V269.474c0-66.803 23.713-123.958 71.168-171.386C388.069 50.661 445.17 26.948 512 26.948c66.83 0 123.958 23.713 171.385 71.14 47.428 47.428 71.141 104.583 71.141 171.386v161.684c0 27.486-8.461 61.305-25.465 101.457-16.977 40.151-35.409 60.227-55.377 60.227v80.842l323.369 207.764"
        p-id="15592" fill="#3AB642"></path>
</svg>