<svg width="16px" height="16px" viewBox="0 0 16 16" version="1.1" xmlns="http://www.w3.org/2000/svg"
    xmlns:xlink="http://www.w3.org/1999/xlink">
    <g id="index" stroke="none" stroke-width="1" fill="none" fill-rule="evenodd">
        <g id="index-1" transform="translate(-165.000000, -105.000000)" fill-rule="nonzero">
            <g id="header" transform="translate(0.000000, 43.000000)">
                <g id="search-bar" transform="translate(6.000000, 52.500000)">
                    <g id="search搜索" transform="translate(159.000000, 9.500000)">
                        <rect id="矩形" fill="#000000" opacity="0" x="0" y="0" width="16" height="16"></rect>
                        <path
                            d="M15.7,13.9 C15.7,13.8 15.6,13.7 15.5,13.7 L12.5,10.7 C13.4,9.5 13.9,8 13.7,6.5 C13.5,5 12.8,3.6 11.7,2.6 C10.6,1.5 9.1,1 7.6,1 C6.1,1 4.6,1.7 3.6,2.8 C2.5,3.9 1.9,5.3 1.8,6.8 C1.7,8.3 2.3,9.8 3.3,11 C4.3,12.1 5.7,12.9 7.2,13 C8.7,13.1 10.2,12.7 11.4,11.8 L14.4,14.8 C14.5,14.9 14.6,14.9 14.6,15 C14.7,15 14.8,15.1 14.9,15.1 C15,15.1 15.1,15.1 15.2,15 C15.3,15 15.4,14.9 15.4,14.8 C15.5,14.7 15.5,14.6 15.6,14.6 C15.6,14.5 15.7,14.4 15.7,14.3 L15.7,13.9 Z M11.9,8.7 C11.7,9.2 11.3,9.7 10.9,10.2 C10.5,10.6 10,10.9 9.4,11.2 C8.9,11.4 8.3,11.5 7.7,11.5 C7.1,11.5 6.5,11.4 6,11.2 C5.5,11 5,10.6 4.5,10.2 C4.1,9.8 3.8,9.3 3.5,8.7 C3.4,8.2 3.2,7.6 3.2,7 C3.2,5.8 3.7,4.7 4.5,3.8 C5.3,3 6.5,2.5 7.7,2.5 C8.9,2.5 10,3 10.9,3.8 C11.7,4.6 12.2,5.8 12.2,7 C12.2,7.6 12.1,8.2 11.9,8.7 Z"
                            id="形状" fill="#8C8C8C"></path>
                    </g>
                </g>
            </g>
        </g>
    </g>
</svg>