<svg t="1618041610175" class="icon" viewBox="0 0 1024 1024" version="1.1" xmlns="http://www.w3.org/2000/svg"
    p-id="19176" width="200" height="200">
    <path
        d="M819.2 796.3l-24.6 24.6-593.3-593.2L226 203l593.2 593.3z m-115.4-16.9h-99.7c-10.5 33.2-53.7 57.3-106.9 57.3s-96.4-24.2-106.9-57.3H245.8c-10.7 0-20.8-5.8-26.1-15.1-5.3-9.2-5.3-20.8 0-30l54-93.4V433.5c0-25.1 4.3-49.3 12.1-72.1l25.3 25.3c-3.8 15.1-5.9 30.8-5.9 46.9v215.8L248 748h424.4l31.4 31.4z m-135 0H425.6c11.5 14.1 37.8 26 71.6 26s60-11.9 71.6-26zM458.5 245.2l12.5-2.6v-18.5c0-15.3 12.4-27.8 27.7-27.8 15.3 0 27.7 12.5 27.7 27.8v19l12.3 2.7c88.6 19.5 150.4 96.6 150.4 187.6V617l41.7 41.7-10.3-17.8V433.5c0-101.7-66.4-188.6-163.1-215.3-3-29.8-28.2-53.2-58.8-53.2-30.3 0-55.3 22.9-58.7 52.3-37 9.8-69.8 28.8-96.4 54l22.3 22.3c25.4-23.8 57-41 92.7-48.4z"
        p-id="19177" fill="#8a8a8a"></path>
    <path
        d="M823.3 801l-25.1 25.1-604.3-604.3 25.1-25.1L823.3 801z m-117.6-17.2H604.1c-10.7 33.8-54.7 58.4-108.9 58.4s-98.2-24.6-108.9-58.4H239.2c-10.9 0-21.1-5.9-26.6-15.4-5.4-9.4-5.4-21.1 0-30.6l55-95.1V431.5c0-25.5 4.3-50.3 12.3-73.4l25.7 25.7c-3.9 15.4-6.1 31.3-6.1 47.7v219.8l-58.2 100.6h432.3l32.1 31.9z m-137.6 0H422.3c11.8 14.4 38.5 26.4 72.9 26.4 34.5 0 61.2-12 72.9-26.4zM455.9 239.7l12.8-2.6v-18.8c0-15.6 12.7-28.3 28.2-28.3 15.6 0 28.2 12.7 28.2 28.3v19.3l12.6 2.8c90.2 19.8 153.2 98.4 153.2 191.1v186.9l42.4 42.4-10.5-18.1V431.5c0-103.6-67.7-192.1-166.1-219.3-3.1-30.4-28.7-54.2-59.9-54.2-30.8 0-56.3 23.3-59.8 53.3-37.6 10-71.1 29.3-98.2 55l22.7 22.7c25.8-24.2 58-41.8 94.4-49.3z"
        p-id="19178" fill="#8a8a8a"></path>
</svg>